<svg class="wone-logo" fill="none" height="32px" id="88acc3f9-808f-4bee-b28c-9029dedc1875" role="img" viewBox="0 0 40 16" width="80" xmlns="http://www.w3.org/2000/svg" aria-labelledby="88acc3f9-808f-4bee-b28c-9029dedc1875-title">
  <title id="88acc3f9-808f-4bee-b28c-9029dedc1875-title">Westpac Logo</title>
  <path d="M14.51 14.3L10.48 2.34C9.91 0.52 8.95 0 7.47 0H0C0.59 0.23 0.98 1.68 0.98 1.68L4.58 13.7C5 15.2 6.3 16 7.77 16H15.69C15.13 15.9 14.51 14.3 14.51 14.3Z" fill="#d5002b"></path>
  <path d="M32.53 0C31.06 0 30.09 0.52 29.52 2.34L25.49 14.3C25.49 14.3 24.87 15.89 24.3 15.99V0H15.7V16H24.31H32.23C33.71 16 35 15.2 35.42 13.7L39.03 1.68C39.03 1.68 39.42 0.23 40.01 0H32.53V0Z" fill="#d5002b"></path>
</svg>